Coordinates
version=1
nRows=26
nColumns=22
inDegrees=yes

Units are S.I. units (second, meters, Newtons, ...)
If the header above contains a line with 'inDegrees', this indicates whether rotational values are in degrees (yes) or radians (no).

endheader
time	pelvis_tilt	pelvis_list	pelvis_rotation	pelvis_tx	pelvis_ty	pelvis_tz	hip_flexion_r	hip_adduction_r	hip_rotation_r	knee_angle_r	ankle_angle_r	subtalar_angle_r	hip_flexion_l	hip_adduction_l	hip_rotation_l	knee_angle_l	ankle_angle_l	subtalar_angle_l	lumbar_extension	lumbar_bending	lumbar_rotation
      4.31000000	      2.89052352	     -3.11518717	     11.65232784	     -0.06312658	      1.00199070	     -0.56898122	      2.97835463	     15.86169076	      3.30054527	    -17.82169826	     10.11913067	    -12.56822546	     21.40473393	    -13.46123427	      0.45092006	    -39.73826681	      8.94665083	      1.81874804	    -16.22461574	      5.69002332	      7.35680882
      4.32000000	      2.77355606	     -2.97433528	     11.13963062	     -0.05749260	      1.00192744	     -0.57047410	      2.62373031	     15.63598219	      3.77589452	    -17.86120354	     10.40750832	    -12.51481220	     21.70258768	    -12.83109702	      0.79499633	    -37.81456679	      8.61544112	      3.04239792	    -16.26620443	      5.54779840	      7.32112003
      4.33000000	      2.67366012	     -2.82544426	     10.65135721	     -0.05180942	      1.00185188	     -0.57198429	      2.25591995	     15.40084710	      4.22817927	    -17.90351459	     10.70727000	    -12.46748829	     21.95695904	    -12.17250914	      1.11792381	    -35.88905190	      8.26288102	      4.23821246	    -16.32216924	      5.40642278	      7.26150921
      4.34000000	      2.59490170	     -2.67607679	     10.17744062	     -0.04607951	      1.00175153	     -0.57347498	      1.87189135	     15.16508353	      4.66432037	    -17.95169182	     11.01786270	    -12.42186807	     22.16674154	    -11.50880414	      1.39881025	    -33.96946648	      7.90482557	      5.37540480	    -16.39920532	      5.27015865	      7.18712438
      4.35000000	      2.53323082	     -2.53943413	      9.71755279	     -0.04029608	      1.00160311	     -0.57492419	      1.48056849	     14.94404186	      5.08638632	    -18.01089437	     11.33282319	    -12.37932128	     22.34406036	    -10.86328056	      1.61198208	    -32.06273033	      7.54904617	      6.39752508	    -16.48886609	      5.15078307	      7.09564550
      4.36000000	      2.48358076	     -2.43757468	      9.27848608	     -0.03439869	      1.00139590	     -0.57633162	      1.05354850	     14.75640987	      5.48743023	    -18.01200448	     11.63164819	    -12.33582861	     22.50736872	    -10.26752310	      1.72852117	    -30.18322544	      7.19250205	      7.37229471	    -16.56960996	      5.06982419	      7.00931303
      4.37000000	      2.44912904	     -2.36514208	      8.84613987	     -0.02844011	      1.00111189	     -0.57767065	      0.62046430	     14.60192097	      5.88404803	    -18.02372709	     11.93599482	    -12.30133883	     22.65290233	     -9.71872287	      1.74346854	    -28.33638914	      6.88123204	      8.25495062	    -16.65950992	      5.02022454	      6.91557345
      4.38000000	      2.41794775	     -2.32943860	      8.41934680	     -0.02239321	      1.00073953	     -0.57894989	      0.17903149	     14.48301375	      6.26703055	    -18.01815399	     12.23767623	    -12.27612813	     22.79821362	     -9.22265269	      1.64827461	    -26.53181804	      6.60158937	      9.06833780	    -16.73901951	      5.00906957	      6.83469731
      4.39000000	      2.38463115	     -2.33014554	      7.99647845	     -0.01624427	      1.00027520	     -0.58017903	     -0.27388938	     14.39649976	      6.63254468	    -17.98160779	     12.53739033	    -12.25736001	     22.94949105	     -8.77550361	      1.44799561	    -24.77441487	      6.36731186	      9.82312059	    -16.80020045	      5.03476882	      6.78349651
      4.40000000	      2.35764552	     -2.37270768	      7.58221837	     -0.01002127	      0.99972989	     -0.58135691	     -0.74326247	     14.35546599	      7.02382813	    -17.92247271	     12.81705864	    -12.23548933	     23.10479701	     -8.37673063	      1.17847369	    -23.07395975	      6.19295413	     10.55976421	    -16.86073159	      5.11071003	      6.70678049
      4.41000000	      2.31577012	     -2.43096237	      7.14661915	     -0.00370574	      0.99909347	     -0.58248319	     -1.19624220	     14.32042493	      7.39037006	    -17.87380990	     13.10444891	    -12.20811793	     23.25748539	     -7.99768452	      0.85428654	    -21.40904332	      6.09210465	     11.18498424	    -16.89846641	      5.19706635	      6.69501483
      4.42000000	      2.26558605	     -2.50906086	      6.70412462	      0.00267822	      0.99838360	     -0.58355437	     -1.64273020	     14.30348064	      7.76786549	    -17.82500456	     13.38106810	    -12.16442228	     23.40487534	     -7.63583174	      0.53135173	    -19.78037959	      6.04567156	     11.74764653	    -16.92631515	      5.30328398	      6.69081256
      4.43000000	      2.21159220	     -2.60672374	      6.25272392	      0.00914051	      0.99761693	     -0.58458745	     -2.08797654	     14.30339308	      8.15029832	    -17.77837686	     13.64279266	    -12.09880730	     23.53270853	     -7.28611360	      0.26926627	    -18.18184284	      6.05087321	     12.26885640	    -16.94981130	      5.43077323	      6.69339943
      4.44000000	      2.13331980	     -2.70594601	      5.77527477	      0.01568433	      0.99677113	     -0.58555450	     -2.50105824	     14.29732944	      8.52252749	    -17.75646281	     13.89895453	    -12.02487685	     23.64515636	     -6.93498808	      0.09515286	    -16.60182132	      6.08623717	     12.68571337	    -16.94568316	      5.54953644	      6.73468562
      4.45000000	      2.04670516	     -2.81333834	      5.27858708	      0.02231421	      0.99587703	     -0.58646313	     -2.90173544	     14.29503555	      8.88410217	    -17.75071005	     14.13374439	    -11.94174651	     23.72419742	     -6.58986270	      0.07153335	    -15.04748062	      6.14675825	     13.04600014	    -16.92978052	      5.67330992	      6.78555704
      4.46000000	      1.95224812	     -2.92811582	      4.76352816	      0.02904117	      0.99493409	     -0.58729185	     -3.29200368	     14.29908768	      9.24249159	    -17.76206485	     14.35274187	    -11.85464111	     23.76475581	     -6.25659424	      0.21911119	    -13.52079586	      6.20544639	     13.35520733	    -16.90269182	      5.79515884	      6.84404032
      4.47000000	      1.85802463	     -3.05337788	      4.22673982	      0.03589097	      0.99396098	     -0.58803207	     -3.68545888	     14.31175273	      9.59422767	    -17.78394631	     14.54762766	    -11.76048648	     23.76030931	     -5.94712791	      0.55853893	    -12.04912603	      6.27619137	     13.62867497	    -16.86796441	      5.92054249	      6.90752875
      4.48000000	      1.71178685	     -3.21536022	      3.68006930	      0.04283586	      0.99284942	     -0.58867092	     -4.01814120	     14.36605245	      9.96209331	    -17.82656675	     14.74679031	    -11.70904833	     23.79597207	     -5.68654335	      1.09090220	    -10.68576317	      6.33052242	     13.80101613	    -16.76389946	      6.07239903	      6.98407364
      4.49000000	      1.67731732	     -3.33505415	      3.10015874	      0.04997458	      0.99193748	     -0.58918898	     -4.48842129	     14.37577400	     10.33181463	    -17.87461467	     14.86414435	    -11.54296543	     23.64685224	     -5.42656741	      1.71190272	     -9.40888245	      6.42281210	     14.08819205	    -16.78450905	      6.16650136	      7.05428454
      4.50000000	      1.59800049	     -3.49144461	      2.50386858	      0.05722558	      0.99091253	     -0.58958183	     -4.91696559	     14.42333242	     10.73481386	    -17.92721960	     14.99106189	    -11.38778529	     23.55721283	     -5.22863970	      2.45347944	     -8.34006804	      6.50894369	     14.32589354	    -16.74457998	      6.28452791	      7.15118893
      4.51000000	      1.48958780	     -3.66973357	      1.88313812	      0.06459224	      0.98981937	     -0.58983158	     -5.31502854	     14.49525888	     11.17344748	    -18.00346494	     15.12294820	    -11.26577729	     23.51415818	     -5.08395409	      3.24485931	     -7.51218482	      6.57202984	     14.51629120	    -16.66354549	      6.41262867	      7.25128353
      4.52000000	      1.47608709	     -3.81553194	      1.25267895	      0.07215430	      0.98891123	     -0.58999055	     -5.84345965	     14.52420805	     11.62533542	    -18.05867009	     15.17033786	    -10.96499011	     23.36651850	     -4.93478654	      4.03620043	     -6.92962195	      6.68370644	     14.82798881	    -16.68502273	      6.49106543	      7.35483583
      4.53000000	      1.42670226	     -3.97353756	      0.60513143	      0.07983263	      0.98794323	     -0.59003241	     -6.33217130	     14.56225295	     12.10601155	    -18.14019379	     15.23798871	    -10.70273091	     23.28726587	     -4.81753803	      4.82671229	     -6.63559033	      6.75321125	     15.07657583	    -16.65655927	      6.57118951	      7.45906712
      4.54000000	      1.37480598	     -4.12716358	     -0.05143049	      0.08764570	      0.98700320	     -0.58998686	     -6.82440678	     14.58921353	     12.60943365	    -18.23283540	     15.25658973	    -10.45915293	     23.22332948	     -4.70915196	      5.63284329	     -6.60293094	      6.77599595	     15.25443308	    -16.61793776	      6.63887734	      7.55294120
      4.55000000	      1.32068779	     -4.27108217	     -0.71237544	      0.09558189	      0.98609194	     -0.58984680	     -7.30813260	     14.60232955	     13.10938015	    -18.35811121	     15.28555592	    -10.25709113	     23.17048635	     -4.60063318	      6.47542699	     -6.81227886	      6.70108756	     15.34913179	    -16.56979690	      6.68263160	      7.63921131
      4.56000000	      1.29099828	     -4.38782949	     -1.37526717	      0.10366692	      0.98529908	     -0.58965239	     -7.82301249	     14.57532721	     13.60957763	    -18.49002441	     15.25249892	     -9.95788856	     23.06573499	     -4.47100330	      7.39190090	     -7.18361953	      6.53110083	     15.36901771	    -16.54179881	      6.69289605	      7.71328612
